<mxfile host="app.diagrams.net" modified="2020-10-29T11:25:31.785Z" agent="5.0 (X11; Linux x86_64) AppleWebKit/537.36 (KHTML, like Gecko) Chrome/86.0.4240.75 Safari/537.36" etag="4UKweVFjo4ToQf065x30" version="13.8.6" type="github">
  <diagram id="QAo16Hie69T3x22vEaTF" name="Page-1">
    <mxGraphModel dx="638" dy="703" grid="1" gridSize="10" guides="1" tooltips="1" connect="1" arrows="1" fold="1" page="1" pageScale="1" pageWidth="827" pageHeight="1169" math="0" shadow="0">
      <root>
        <mxCell id="0" />
        <mxCell id="1" parent="0" />
        <mxCell id="KPORI6w8GzpsgqiiTYeu-14" value="" style="edgeStyle=orthogonalEdgeStyle;rounded=0;orthogonalLoop=1;jettySize=auto;html=1;" edge="1" parent="1" source="KPORI6w8GzpsgqiiTYeu-12" target="KPORI6w8GzpsgqiiTYeu-13">
          <mxGeometry relative="1" as="geometry" />
        </mxCell>
        <mxCell id="KPORI6w8GzpsgqiiTYeu-12" value="&lt;font style=&quot;font-size: 18px&quot;&gt;人类演示&lt;/font&gt;" style="rounded=1;whiteSpace=wrap;html=1;" vertex="1" parent="1">
          <mxGeometry x="180" y="300" width="120" height="60" as="geometry" />
        </mxCell>
        <mxCell id="KPORI6w8GzpsgqiiTYeu-16" value="" style="edgeStyle=orthogonalEdgeStyle;rounded=0;orthogonalLoop=1;jettySize=auto;html=1;" edge="1" parent="1" source="KPORI6w8GzpsgqiiTYeu-13" target="KPORI6w8GzpsgqiiTYeu-15">
          <mxGeometry relative="1" as="geometry" />
        </mxCell>
        <mxCell id="KPORI6w8GzpsgqiiTYeu-13" value="&lt;font style=&quot;font-size: 18px&quot;&gt;感知&lt;br&gt;行为获取&lt;/font&gt;" style="rounded=1;whiteSpace=wrap;html=1;" vertex="1" parent="1">
          <mxGeometry x="180" y="160" width="120" height="60" as="geometry" />
        </mxCell>
        <mxCell id="KPORI6w8GzpsgqiiTYeu-18" value="" style="edgeStyle=orthogonalEdgeStyle;rounded=0;orthogonalLoop=1;jettySize=auto;html=1;" edge="1" parent="1" source="KPORI6w8GzpsgqiiTYeu-15" target="KPORI6w8GzpsgqiiTYeu-17">
          <mxGeometry relative="1" as="geometry" />
        </mxCell>
        <mxCell id="KPORI6w8GzpsgqiiTYeu-15" value="&lt;font style=&quot;font-size: 18px&quot;&gt;学习&lt;br&gt;动作表征&lt;/font&gt;" style="rounded=1;whiteSpace=wrap;html=1;" vertex="1" parent="1">
          <mxGeometry x="380" y="160" width="120" height="60" as="geometry" />
        </mxCell>
        <mxCell id="KPORI6w8GzpsgqiiTYeu-20" value="" style="edgeStyle=orthogonalEdgeStyle;rounded=0;orthogonalLoop=1;jettySize=auto;html=1;" edge="1" parent="1" source="KPORI6w8GzpsgqiiTYeu-17" target="KPORI6w8GzpsgqiiTYeu-19">
          <mxGeometry relative="1" as="geometry" />
        </mxCell>
        <mxCell id="KPORI6w8GzpsgqiiTYeu-17" value="&lt;font style=&quot;font-size: 18px&quot;&gt;执行&lt;br&gt;行为再现、泛化&lt;/font&gt;" style="rounded=1;whiteSpace=wrap;html=1;" vertex="1" parent="1">
          <mxGeometry x="580" y="160" width="150" height="60" as="geometry" />
        </mxCell>
        <mxCell id="KPORI6w8GzpsgqiiTYeu-19" value="&lt;font style=&quot;font-size: 18px&quot;&gt;机器人&lt;/font&gt;" style="rounded=1;whiteSpace=wrap;html=1;" vertex="1" parent="1">
          <mxGeometry x="595" y="300" width="120" height="60" as="geometry" />
        </mxCell>
      </root>
    </mxGraphModel>
  </diagram>
</mxfile>
